# xmcd
#
# Track frame offsets: 
#        150
#        22460
#        42005
#        62592
#        78155
#        111617
#        130725
#        150212
#        170434
#        188457
#
# Disc length: 2840 seconds
#
# Revision: 2
# Processed by: cddbd v1.5.2PL0 Copyright (c) Steve Scherf et al.
# Submitted via: ExactAudioCopy v0.99pb4
#
DISCID=760b160a
DTITLE=James Peterson - Preachin' The Blues
DYEAR=1996
DGENRE=Blues
TTITLE0=Shoe On The Other Foot
TTITLE1=Who Shot John?
TTITLE2=Lost What I Had
TTITLE3=Silky Silk
TTITLE4=Come Home To Eat
TTITLE5=The Bottom Line
TTITLE6=Women's Pet
TTITLE7=Why Mama Had To Cry
TTITLE8=I've Got A Problem
TTITLE9=Some Things A Man Shouldn't Have To Do
EXTD=James Paterson Lead Vocals, Lead Guitar\nClayton Ivey, Keyboards\n
EXTD=William Andrew-Thomas, Guitar\nG.W. Rose, Guitar\nBig Mike Griffi
EXTD=n,Guitar\nJoel Brodsky, Bass\nPaul H. Lee, Drums\nTN'T Horns-Denn
EXTD=is Taylor,Saxes, Terry Townsend,Trumpet\n
EXTT0=
EXTT1=
EXTT2=
EXTT3=
EXTT4=
EXTT5=
EXTT6=
EXTT7=
EXTT8=
EXTT9=
PLAYORDER=
